<svg width="25" height="26" viewBox="0 0 25 26" fill="none" xmlns="http://www.w3.org/2000/svg">
<path d="M12.7559 10.7273V15.5682H19.6205C19.319 17.125 18.4145 18.4433 17.0573 19.3514V22.4859H21.2064C23.6332 20.2523 25.0227 16.9427 25.0227 13.0001C25.0227 12.2132 24.9532 11.4551 24.8232 10.7273H12.7559Z" fill="#4285F4"/>
<path d="M5.60565 15.3792L4.67201 16.0795L1.36719 18.6022C3.466 22.6817 7.76705 25.4773 12.754 25.4773C16.1432 25.4773 19.0068 24.3642 21.2064 22.4859L17.0573 19.3514C15.9182 20.1114 14.4609 20.5641 12.754 20.5641C9.48295 20.5641 6.7091 18.3692 5.72045 15.4241L5.60565 15.3792Z" fill="#34A853"/>
<path d="M1.36819 7.39771C0.498562 9.07945 0 10.9772 0 12.9999C0 15.0226 0.498562 16.9203 1.36819 18.6021L5.72132 15.424C5.46705 14.6596 5.32386 13.8449 5.32386 12.9999C5.32386 12.1549 5.46705 11.3402 5.72132 10.5758L1.36819 7.39771Z" fill="#FBBC05"/>
<path d="M12.754 5.47727C14.6326 5.47727 16.3023 6.11362 17.6358 7.34091L21.2898 3.68682C19.0011 1.55455 16.1381 0.25 12.754 0.25C7.76705 0.25 3.466 3.04545 1.36818 7.125L5.72132 10.3032C6.7091 7.35805 9.48295 5.16318 12.754 5.47727Z" fill="#EA4335"/>
</svg>
